<svg width="26" height="20" viewBox="0 0 26 20" fill="none" xmlns="http://www.w3.org/2000/svg">
<path d="M23 15.8926V2.89258C23 1.78801 22.1046 0.892578 21 0.892578H5C3.89543 0.892578 3 1.78801 3 2.89258V15.8926" stroke="#24293B" stroke-linejoin="round"/>
<path d="M16.4903 7.66989C16.3632 7.36308 16.3975 7.02622 16.5601 6.7572C16.7002 6.52539 16.6642 6.22948 16.4821 6.02908C16.3513 5.88515 16.213 5.75027 16.0669 5.62514C15.8589 5.44673 15.5573 5.41744 15.3262 5.56538C15.0533 5.74008 14.7051 5.77995 14.3898 5.64895C14.0905 5.52498 13.8793 5.27141 13.7996 4.97583C13.7271 4.70631 13.5014 4.50797 13.223 4.49458C13.0299 4.48502 12.8353 4.48791 12.6399 4.50301C12.3904 4.52213 12.1322 4.73227 12.0799 4.97695C12.0123 5.29621 11.7933 5.57375 11.4754 5.70545C11.1574 5.83715 10.8317 5.79828 10.5627 5.63567C10.3309 5.49562 10.035 5.53159 9.83456 5.71365C9.69063 5.84445 9.55574 5.98277 9.43062 6.12891C9.25221 6.33686 9.22292 6.63845 9.37086 6.86959C9.54556 7.14244 9.58522 7.4902 9.45443 7.80595C9.33046 8.10524 9.07689 8.31645 8.78131 8.39617C8.51179 8.46866 8.31345 8.69436 8.30005 8.97275C8.2905 9.16592 8.29338 9.36047 8.30849 9.55588C8.32761 9.80539 8.53775 10.0636 8.78243 10.1158C9.10169 10.1835 9.37923 10.4025 9.51093 10.7204C9.64263 11.0384 9.60375 11.3641 9.44115 11.6331C9.3011 11.8649 9.33707 12.1608 9.51913 12.3612C9.64993 12.5051 9.78825 12.64 9.93438 12.7652C10.1423 12.9436 10.4439 12.9729 10.6751 12.8249C10.9479 12.6502 11.2957 12.6106 11.6114 12.7413C11.9107 12.8653 12.1219 13.1189 12.2017 13.4145C12.2741 13.684 12.4998 13.8823 12.7782 13.8957C12.9714 13.9053 13.1659 13.9024 13.3614 13.8873C13.6109 13.8682 13.869 13.658 13.9213 13.4133C13.989 13.0941 14.2079 12.8165 14.5259 12.6848C14.8438 12.5531 15.1696 12.592 15.4386 12.7546C15.6704 12.8947 15.9663 12.8587 16.1667 12.6766C16.3106 12.5458 16.4455 12.4075 16.5706 12.2614C16.749 12.0534 16.7783 11.7519 16.6304 11.5207C16.4557 11.2479 16.416 10.9001 16.5468 10.5843C16.6708 10.2851 16.9244 10.0739 17.2199 9.99412C17.4893 9.92113 17.6878 9.69594 17.7012 9.41754C17.7108 9.22437 17.7079 9.02983 17.6928 8.83441C17.6736 8.58491 17.4635 8.32674 17.2188 8.27446C16.8996 8.20681 16.622 7.98784 16.4903 7.66989Z" stroke="#24293B" stroke-miterlimit="16"/>
<path d="M13.7884 11.0969C14.8389 10.6618 15.3378 9.45742 14.9026 8.40692C14.4675 7.35641 13.2632 6.85756 12.2127 7.29269C11.1621 7.72782 10.6633 8.93217 11.0984 9.98267C11.5336 11.0332 12.7379 11.532 13.7884 11.0969Z" stroke="#24293B" stroke-miterlimit="10"/>
<path d="M1 17.1199C1 18.2244 1.89543 19.1199 3 19.1199H23C24.1046 19.1199 25 18.2244 25 17.1199V16.285H1V17.1199Z" stroke="#24293B" stroke-linejoin="round"/>
</svg>
