<svg width="117" height="32" viewBox="0 0 117 32" fill="none" xmlns="http://www.w3.org/2000/svg">
<path d="M11.0787 23.1979V20.5798H3.63094V6.9766C2.02905 6.9766 0.730469 8.26925 0.730469 9.86381V23.1979H11.0787ZM16.4864 23.1979V10.181C14.9388 10.181 13.6843 11.4298 13.6843 12.9703V23.1979H16.4864ZM39.0265 23.2958C41.2878 23.2958 43.1559 22.4883 44.4341 21.0937L42.9347 19.5033C41.9761 20.482 40.6733 21.0203 39.2477 21.0203C37.1829 21.0203 35.6344 19.7724 35.192 17.766H45.0732C45.4173 13.0682 43.5492 10.0831 38.9527 10.0831C35.069 10.1076 32.3406 12.7746 32.3406 16.7139C32.3406 20.6288 34.9953 23.2958 39.0265 23.2958ZM42.6152 15.7107H35.1428C35.4623 13.631 36.9126 12.3342 38.9773 12.3342C41.1158 12.3342 42.5169 13.6065 42.6152 15.7107ZM51.9793 23.2958C54.6094 23.2958 56.9938 22.0968 56.9938 19.4298C57.0183 14.7075 50.0621 16.0043 50.0621 13.6065C50.0621 12.6767 50.8732 12.3097 51.9793 12.3097C53.1346 12.3097 54.5849 12.7501 55.7401 13.4597L56.7725 11.3799C55.5926 10.548 53.8474 10.0586 52.2006 10.0586C49.6934 10.0586 47.3828 11.1842 47.3828 13.8267C47.3703 16.2302 49.1657 17.0134 50.9224 17.5622L51.1615 17.6357C52.7518 18.1179 54.2407 18.4585 54.2407 19.699C54.2407 20.6777 53.3067 21.0937 52.1022 21.0937C50.6766 21.0937 48.8577 20.482 47.727 19.4788L46.7192 21.4852C48.0219 22.6596 50.0621 23.2958 51.9793 23.2958ZM62.5252 27.0385V20.9469C63.4838 22.4639 65.0569 23.2958 67.1463 23.2958C70.8824 23.2958 73.3405 20.6288 73.3405 16.7384C73.3405 12.7746 70.8087 10.0831 67.0971 10.0831C65.0569 10.0831 63.4838 10.915 62.5252 12.432C62.5252 11.1888 61.5127 10.181 60.2638 10.181H59.6984V27.0385H62.5252ZM66.5072 20.8979C64.172 20.8979 62.5252 19.1607 62.5252 16.6405C62.5252 14.1937 64.172 12.432 66.5072 12.432C68.8423 12.432 70.4892 14.2182 70.4892 16.6405C70.4892 19.1362 68.8423 20.8979 66.5072 20.8979ZM96.963 23.2958C99.4456 23.2958 101.338 22.4149 102.518 20.8735L100.945 19.3075C100.06 20.3352 98.7328 20.8735 97.0859 20.8735C94.8245 20.8735 93.2022 19.1852 93.2022 16.7139C93.2022 14.2427 94.8245 12.5544 97.0859 12.5544C98.659 12.5299 99.9126 13.0927 100.822 14.0224L102.371 12.2118C101.166 10.8416 99.3227 10.0831 96.963 10.0831C93.0793 10.0831 90.3755 12.7746 90.3755 16.7139C90.3755 20.6288 93.0793 23.2958 96.963 23.2958ZM110.014 23.2958C112.276 23.2958 114.144 22.4883 115.422 21.0937L113.922 19.5033C112.964 20.482 111.661 21.0203 110.235 21.0203C108.171 21.0203 106.622 19.7724 106.18 17.766H116.061C116.405 13.0682 114.537 10.0831 109.94 10.0831C106.057 10.1076 103.328 12.7746 103.328 16.7139C103.328 20.6288 105.983 23.2958 110.014 23.2958ZM113.603 15.7107H106.131C106.45 13.631 107.9 12.3342 109.965 12.3342C112.104 12.3342 113.505 13.6065 113.603 15.7107Z" fill="#24293B"/>
<path d="M81.0939 10.0831C77.3823 10.0831 74.8505 12.7746 74.8505 16.7384C74.8505 20.6287 77.3085 23.2957 81.0447 23.2957C83.1341 23.2957 84.7072 22.4638 85.6658 20.9468L85.6663 20.9945C85.6918 22.2157 86.6943 23.1979 87.9272 23.1979H88.3633V10.181H85.6658V12.432C84.7072 10.915 83.1341 10.0831 81.0939 10.0831ZM81.6838 12.432C84.0189 12.432 85.6658 14.1937 85.6658 16.6405C85.6658 19.1607 84.0189 20.8979 81.6838 20.8979C79.3487 20.8979 77.7018 19.1362 77.7018 16.6405C77.7018 14.2182 79.3487 12.432 81.6838 12.432Z" fill="#24293B"/>
<path fill-rule="evenodd" clip-rule="evenodd" d="M32.7213 7.94333C29.9066 7.49827 27.9468 8.20341 26.8077 10.0587C25.92 11.5045 25.3529 13.9413 25.1064 17.3692L25.0977 23.1983L30.6032 12.181L32.7213 7.94333Z" fill="#4FD465"/>
<path d="M30.6044 12.1802L25.098 23.1981L18.6006 10.1811H21.7016L25.0977 17.3693L26.7329 13.8902C27.3366 12.6057 28.7236 11.8762 30.1298 12.1035L30.6044 12.1802Z" fill="#24293B"/>
</svg>
