<svg width="40" height="40" viewBox="0 0 40 40" fill="none" xmlns="http://www.w3.org/2000/svg">
<path fill-rule="evenodd" clip-rule="evenodd" d="M38 20C38 29.9411 29.9411 38 20 38C10.0589 38 2 29.9411 2 20C2 10.0589 10.0589 2 20 2C29.9411 2 38 10.0589 38 20ZM32 20C32 26.6274 26.6274 32 20 32C13.3726 32 8 26.6274 8 20C8 13.3726 13.3726 8 20 8C26.6274 8 32 13.3726 32 20ZM30 20C30 25.5228 25.5228 30 20 30C14.4772 30 10 25.5228 10 20C10 14.4772 14.4772 10 20 10C25.5228 10 30 14.4772 30 20ZM23 20C23 21.6569 21.6569 23 20 23C18.3431 23 17 21.6569 17 20C17 18.3431 18.3431 17 20 17C21.6569 17 23 18.3431 23 20Z" fill="url(#paint0_linear_1980_486)"/>
<defs>
<linearGradient id="paint0_linear_1980_486" x1="18.3315" y1="14.3878" x2="18.3315" y2="30.7143" gradientUnits="userSpaceOnUse">
<stop stop-color="#75DD83"/>
<stop offset="1" stop-color="#4FD465"/>
</linearGradient>
</defs>
</svg>
