<svg width="40" height="40" viewBox="0 0 40 40" fill="none" xmlns="http://www.w3.org/2000/svg">
<path d="M14 32.5C14 32.2239 14.2239 32 14.5 32H25.5C25.7761 32 26 32.2239 26 32.5V34C26 35.6569 24.6569 37 23 37H17C15.3431 37 14 35.6569 14 34V32.5Z" fill="url(#paint0_linear_1980_494)"/>
<path d="M7.73529 15.2808C7.73529 18.2151 8.77454 21.0556 10.6612 23.2788C12.1122 24.9886 13.0339 27.06 13.3292 29.2308C13.401 29.7583 13.8354 30.1765 14.3678 30.1765H25.3741C25.9051 30.1765 26.339 29.7605 26.4101 29.2343C26.707 27.0384 27.6124 24.9833 29.0329 23.3272C30.9639 21.0753 32.0177 18.1907 31.9998 15.2043C31.9591 8.47033 26.5185 3 19.8675 3H19.8447C16.6088 3.00593 13.5676 4.28616 11.2815 6.60463C8.99479 8.92309 7.73529 12.0044 7.73529 15.2808Z" fill="url(#paint1_linear_1980_494)"/>
<defs>
<linearGradient id="paint0_linear_1980_494" x1="20.332" y1="33.1361" x2="20.332" y2="37.3635" gradientUnits="userSpaceOnUse">
<stop stop-color="#75DD83"/>
<stop offset="1" stop-color="#4FD465"/>
</linearGradient>
<linearGradient id="paint1_linear_1980_494" x1="19.1964" y1="9.17512" x2="19.1964" y2="32.1523" gradientUnits="userSpaceOnUse">
<stop stop-color="#75DD83"/>
<stop offset="1" stop-color="#4FD465"/>
</linearGradient>
</defs>
</svg>
