<svg width="40" height="40" viewBox="0 0 40 40" fill="none" xmlns="http://www.w3.org/2000/svg">
<path d="M3 7C3 6.44771 3.44772 6 4 6H7.48538C7.80833 6 8.1114 6.15597 8.29912 6.41876L17.5848 19.4188C17.8332 19.7665 17.8332 20.2335 17.5848 20.5812L8.29912 33.5812C8.1114 33.844 7.80833 34 7.48538 34H4C3.44772 34 3 33.5523 3 33V7Z" fill="url(#paint0_linear_1980_492)"/>
<path d="M10.7259 6.31625C10.6313 6.18387 10.726 6 10.8886 6H17.4854C17.8083 6 18.1114 6.15597 18.2991 6.41876L27.5848 19.4188C27.8332 19.7665 27.8332 20.2335 27.5848 20.5812L18.2991 33.5812C18.1114 33.844 17.8083 34 17.4854 34H10.8886C10.726 34 10.6313 33.8161 10.7259 33.6838L20.0848 20.5812C20.3332 20.2335 20.3332 19.7665 20.0848 19.4188L10.7259 6.31625Z" fill="url(#paint1_linear_1980_492)"/>
<path d="M20.7259 6.31625C20.6313 6.18387 20.726 6 20.8886 6H27.4854C27.8083 6 28.1114 6.15597 28.2991 6.41876L37.5848 19.4188C37.8332 19.7665 37.8332 20.2335 37.5848 20.5812L28.2991 33.5812C28.1114 33.844 27.8083 34 27.4854 34H20.8886C20.726 34 20.6313 33.8161 20.7259 33.6838L30.0848 20.5812C30.3332 20.2335 30.3332 19.7665 30.0848 19.4188L20.7259 6.31625Z" fill="url(#paint2_linear_1980_492)"/>
<defs>
<linearGradient id="paint0_linear_1980_492" x1="10.915" y1="12.3622" x2="10.915" y2="36.0357" gradientUnits="userSpaceOnUse">
<stop stop-color="#75DD83"/>
<stop offset="1" stop-color="#4FD465"/>
</linearGradient>
<linearGradient id="paint1_linear_1980_492" x1="18.915" y1="12.3622" x2="18.915" y2="36.0357" gradientUnits="userSpaceOnUse">
<stop stop-color="#75DD83"/>
<stop offset="1" stop-color="#4FD465"/>
</linearGradient>
<linearGradient id="paint2_linear_1980_492" x1="28.915" y1="12.3622" x2="28.915" y2="36.0357" gradientUnits="userSpaceOnUse">
<stop stop-color="#75DD83"/>
<stop offset="1" stop-color="#4FD465"/>
</linearGradient>
</defs>
</svg>
