<svg width="40" height="40" viewBox="0 0 40 40" fill="none" xmlns="http://www.w3.org/2000/svg">
<path d="M32 12.5C32 20.872 20 31.5 20 31.5C20 31.5 8 20.228 8 12.5C8 5.74224 13.3726 1 20 1C26.6274 1 32 5.74224 32 12.5Z" fill="url(#paint0_linear_1980_493)"/>
<circle cx="20" cy="13" r="4" fill="#FAFBFD"/>
<path fill-rule="evenodd" clip-rule="evenodd" d="M30.8123 32.6498C30.485 32.3879 30 32.621 30 33.0402V34.9998H5.5C5.22386 34.9998 5 35.2237 5 35.4998V36.4998C5 36.7759 5.22386 36.9998 5.5 36.9998H30V38.9596C30 39.3789 30.485 39.612 30.8123 39.3501L34.512 36.3904C34.7622 36.1902 34.7622 35.8097 34.512 35.6095L30.8123 32.6498Z" fill="url(#paint1_linear_1980_493)"/>
<defs>
<linearGradient id="paint0_linear_1980_493" x1="17.9979" y1="6.36886" x2="17.9979" y2="26.346" gradientUnits="userSpaceOnUse">
<stop stop-color="#75DD83"/>
<stop offset="1" stop-color="#4FD465"/>
</linearGradient>
<linearGradient id="paint1_linear_1980_493" x1="27.7118" y1="31.5554" x2="27.7118" y2="38.6671" gradientUnits="userSpaceOnUse">
<stop stop-color="#75DD83"/>
<stop offset="1" stop-color="#4FD465"/>
</linearGradient>
</defs>
</svg>
