<svg width="121" height="516" viewBox="0 0 121 516" fill="none" xmlns="http://www.w3.org/2000/svg">
<path fill-rule="evenodd" clip-rule="evenodd" d="M52.2317 98.1677L42.7956 94.6737C42.5977 94.6005 42.3995 94.781 42.4541 94.9849L43.792 99.9778C21.6526 106.906 5.5874 127.577 5.5874 152L5.58741 253.691L0.0480881 261.51C-0.0739136 261.682 0.0492096 261.92 0.260231 261.92H5.58741L5.58742 365C5.58742 393.414 27.3315 416.749 55.0874 419.274V418.269C27.8846 415.748 6.58742 392.861 6.58742 365L6.58741 261.92H11.8945C12.1056 261.92 12.2287 261.682 12.1067 261.51L6.58741 253.72L6.5874 152C6.5874 128.039 22.3385 107.758 44.0511 100.945L45.4653 106.223C45.5199 106.427 45.7818 106.484 45.9166 106.321L52.3415 98.5775C52.4559 98.4396 52.3998 98.2299 52.2317 98.1677ZM60.0874 97.4999L60.0459 97.4999C60.0732 97.6625 60.0874 97.8295 60.0874 97.9999C60.0874 98.1702 60.0732 98.3373 60.0459 98.4999L60.0874 98.4999C89.6346 98.4999 113.587 122.453 113.587 152L113.587 253.08H108.26C108.049 253.08 107.926 253.318 108.048 253.49L113.587 261.309L113.587 365C113.587 388.908 97.9047 409.154 76.2653 416.01L74.8337 410.668C74.7791 410.464 74.5172 410.407 74.3825 410.569L67.9576 418.313C67.8431 418.451 67.8993 418.661 68.0674 418.723L77.5035 422.217C77.7014 422.29 77.8995 422.11 77.8449 421.906L76.5244 416.977C98.5907 410.006 114.587 389.371 114.587 365L114.587 261.28L120.106 253.49C120.228 253.318 120.105 253.08 119.894 253.08H114.587L114.587 152C114.587 121.9 90.1869 97.4999 60.0874 97.4999Z" fill="white"/>
<path d="M58.0875 80L58.0875 60H62.0875V80H58.0875Z" fill="url(#paint0_linear_1655_5866)"/>
<path d="M52.4451 80.4122L59.8775 90.709C59.981 90.8525 60.1945 90.8529 60.2986 90.7098L67.7872 80.413C67.9122 80.2411 67.7894 80 67.5769 80H52.6559C52.4438 80 52.321 80.2403 52.4451 80.4122Z" fill="url(#paint1_linear_1655_5866)"/>
<path d="M60.0874 108C35.7869 108 16.0874 127.699 16.0874 152L16.0874 365C16.0874 388.63 34.7152 407.91 58.0875 408.955L58.0875 434H52.2925C52.0773 434 51.9553 434.246 52.0857 434.417L59.8807 444.648C59.9848 444.785 60.1903 444.785 60.2944 444.648L68.0894 434.417C68.2198 434.246 68.0978 434 67.8826 434H62.0875L62.0875 408.955C85.4597 407.91 104.087 388.63 104.087 365L104.087 152C104.087 127.699 84.3879 108 60.0874 108Z" fill="url(#paint2_linear_1655_5866)"/>
<path fill-rule="evenodd" clip-rule="evenodd" d="M59.5874 202L59.5874 184L60.5874 184L60.5874 202L59.5874 202Z" fill="#24293B"/>
<path fill-rule="evenodd" clip-rule="evenodd" d="M59.5874 333L59.5874 320L60.5874 320L60.5874 333L59.5874 333Z" fill="#24293B"/>
<path fill-rule="evenodd" clip-rule="evenodd" d="M59.5874 227L59.5874 214L60.5874 214L60.5874 227L59.5874 227Z" fill="#24293B"/>
<path fill-rule="evenodd" clip-rule="evenodd" d="M59.5874 307L59.5874 290L60.5874 290L60.5874 307L59.5874 307Z" fill="#24293B"/>
<path d="M54.0584 201.41L59.8756 209.621C59.9792 209.767 60.1962 209.767 60.2998 209.621L66.117 201.41C66.239 201.238 66.1159 201 65.9049 201L54.2705 201C54.0595 201 53.9364 201.238 54.0584 201.41Z" fill="#24293B"/>
<path d="M54.0584 307.41L59.8756 315.621C59.9792 315.767 60.1962 315.767 60.2998 315.621L66.117 307.41C66.239 307.238 66.1159 307 65.9049 307L54.2705 307C54.0595 307 53.9364 307.238 54.0584 307.41Z" fill="#24293B"/>
<circle cx="32" cy="32" r="32" transform="matrix(-1 0 0 1 92.0874 452)" fill="white"/>
<path d="M50.291 492.086V496.055" stroke="#24293B" stroke-linecap="round" stroke-linejoin="round"/>
<path d="M43.3931 491.249V486.144H50.2913V489.178" stroke="#24293B" stroke-linecap="round" stroke-linejoin="round"/>
<path d="M43.3931 496.055V493.966" stroke="#24293B" stroke-linecap="round" stroke-linejoin="round"/>
<path d="M59.7549 488.118V496.055" stroke="#24293B" stroke-linecap="round" stroke-linejoin="round"/>
<path d="M52.8564 488.234V482.188H59.7547V485.181" stroke="#24293B" stroke-linecap="round" stroke-linejoin="round"/>
<path d="M52.8564 496.055V491.099" stroke="#24293B" stroke-linecap="round" stroke-linejoin="round"/>
<path d="M69.2183 482.79V496.055" stroke="#24293B" stroke-linecap="round" stroke-linejoin="round"/>
<path d="M62.3198 483.842V477.199H69.2181V479.62" stroke="#24293B" stroke-linecap="round" stroke-linejoin="round"/>
<path d="M62.3198 496.055V486.833" stroke="#24293B" stroke-linecap="round" stroke-linejoin="round"/>
<path d="M80.0875 472.556L70.2583 474.363L72.6361 477.155C69.0477 479.888 65.2196 482.33 61.2343 484.424C54.2698 488.082 46.8193 490.702 39.0874 492.21L39.5923 494.799C47.5752 493.242 55.2692 490.537 62.4611 486.759C66.6179 484.575 70.6107 482.023 74.3488 479.165L76.7398 481.972L80.0875 472.556Z" stroke="#24293B" stroke-linecap="round" stroke-linejoin="round"/>
<circle cx="32" cy="32" r="32" transform="matrix(-1 0 0 1 92.0874 0)" fill="white"/>
<path d="M46.0874 37.5H54.5874C55.9681 37.5 57.0874 38.6193 57.0874 40V40C57.0874 41.3807 55.9681 42.5 54.5874 42.5H51.5874C50.2067 42.5 49.0874 43.6193 49.0874 45V45C49.0874 46.3807 50.2067 47.5 51.5874 47.5H60.0874" stroke="#24293B" stroke-linecap="round"/>
<path d="M63.4808 47.4889V29.991C63.4808 29.9141 63.5425 29.8521 63.619 29.8521H76.2297C76.3605 29.8521 76.4345 30.0034 76.3539 30.1076L72.8411 34.6668C72.7712 34.7569 72.7712 34.8835 72.8411 34.9745L76.3539 39.5336C76.4337 39.6378 76.3605 39.7892 76.2297 39.7892H63.48" stroke="#24293B" stroke-miterlimit="10" stroke-linecap="round"/>
<path d="M47.0882 34.6369V17.139C47.0882 17.062 47.1499 17 47.2264 17H59.8371C59.9679 17 60.0419 17.1514 59.9613 17.2556L56.4485 21.8147C56.3786 21.9049 56.3786 22.0314 56.4485 22.1224L59.9613 26.6816C60.0411 26.7858 59.9679 26.9371 59.8371 26.9371H47.0874" stroke="#24293B" stroke-miterlimit="10" stroke-linecap="round"/>
<circle cx="32" cy="32" r="32" transform="matrix(-1 0 0 1 92.0874 120)" fill="white"/>
<path d="M41.0879 146C41.0879 145.448 41.5356 145 42.0879 145H48.9397C49.7434 145 50.5135 145.323 51.0774 145.895L56.3971 151.298C56.7804 151.688 56.7804 152.312 56.3971 152.702L51.0774 158.105C50.5135 158.677 49.7434 159 48.9397 159H42.0879C41.5356 159 41.0879 158.552 41.0879 158V146Z" stroke="#24293B"/>
<path d="M55.0874 145H60.0852C60.9017 145 61.683 145.333 62.2487 145.922L67.4219 151.307C67.7937 151.694 67.7937 152.306 67.4219 152.693L62.2487 158.078C61.683 158.667 60.9017 159 60.0852 159H55.0874" stroke="#24293B"/>
<path d="M66.0874 145H71.0852C71.9017 145 72.683 145.333 73.2487 145.922L78.4219 151.307C78.7937 151.694 78.7937 152.306 78.4219 152.693L73.2487 158.078C72.683 158.667 71.9017 159 71.0852 159H66.0874" stroke="#24293B"/>
<circle cx="32" cy="32" r="32" transform="matrix(-1 0 0 1 92.0874 332)" fill="white"/>
<path d="M65.0874 350L65.0874 359.26" stroke="#24293B" stroke-linecap="round" stroke-linejoin="round"/>
<path d="M65.0874 360.707L65.0874 377.413" stroke="#24293B" stroke-linecap="round" stroke-linejoin="round"/>
<path d="M56.5874 350L56.5874 369.609" stroke="#24293B" stroke-linecap="round" stroke-linejoin="round"/>
<path d="M56.5874 373.056L56.5874 377.413" stroke="#24293B" stroke-linecap="round" stroke-linejoin="round"/>
<path d="M48.0874 350L48.0874 361.983" stroke="#24293B" stroke-linecap="round" stroke-linejoin="round"/>
<path d="M48.0874 363.43L48.0874 377.413" stroke="#24293B" stroke-linecap="round" stroke-linejoin="round"/>
<path d="M65.0874 361.892C63.4305 361.892 62.0874 360.549 62.0874 358.892C62.0874 357.235 63.4305 355.892 65.0874 355.892C66.7443 355.892 68.0874 357.235 68.0874 358.892C68.0874 360.549 66.7443 361.892 65.0874 361.892Z" fill="white" stroke="#24293B" stroke-linecap="round" stroke-linejoin="round"/>
<path d="M56.5874 373.5C54.9305 373.5 53.5874 372.157 53.5874 370.5C53.5874 368.843 54.9305 367.5 56.5874 367.5C58.2443 367.5 59.5874 368.843 59.5874 370.5C59.5874 372.157 58.2443 373.5 56.5874 373.5Z" fill="white" stroke="#24293B" stroke-linecap="round" stroke-linejoin="round"/>
<path d="M48.0874 364.5C46.4305 364.5 45.0874 363.157 45.0874 361.5C45.0874 359.843 46.4305 358.5 48.0874 358.5C49.7443 358.5 51.0874 359.843 51.0874 361.5C51.0874 363.157 49.7443 364.5 48.0874 364.5Z" fill="white" stroke="#24293B" stroke-linecap="round" stroke-linejoin="round"/>
<path d="M79.3663 364.993L67.0874 360.375L71.5994 372.961L73.5946 369.257C73.6266 369.197 73.7071 369.186 73.7542 369.234L76.3733 371.918L77.3629 370.903L78.3526 369.888L75.7287 367.2C75.6829 367.153 75.6939 367.075 75.7509 367.043L79.3663 364.993Z" fill="white" stroke="white" stroke-width="3" stroke-linecap="round" stroke-linejoin="round"/>
<path d="M80.3663 365.993L68.0874 361.375L72.5994 373.961L74.5946 370.257C74.6266 370.197 74.7071 370.186 74.7542 370.234L77.3733 372.918L78.3629 371.903L79.3526 370.888L76.7287 368.2C76.6829 368.153 76.6939 368.075 76.7509 368.043L80.3663 365.993Z" fill="white" stroke="#24293B" stroke-linecap="round" stroke-linejoin="round"/>
<circle cx="32" cy="32" r="32" transform="matrix(-1 0 0 1 92.0874 226)" fill="white"/>
<path d="M71.2925 243.416C71.9077 243.416 72.3911 243.626 72.7427 244.046C73.0747 244.437 73.2358 244.944 73.2261 245.569C73.2261 246.194 73.0649 246.702 72.7427 247.093C72.4009 247.503 71.9175 247.708 71.2925 247.708C70.687 247.708 70.2085 247.503 69.8569 247.093C69.5249 246.722 69.3589 246.214 69.3589 245.569C69.3589 244.583 69.7251 243.924 70.4575 243.592C70.6919 243.475 70.9702 243.416 71.2925 243.416ZM71.2925 246.932C71.6538 246.932 71.9272 246.8 72.1128 246.536C72.2983 246.272 72.3911 245.95 72.3911 245.569C72.3911 245.188 72.2983 244.866 72.1128 244.603C71.9272 244.329 71.6538 244.192 71.2925 244.192C70.9312 244.192 70.6577 244.329 70.4722 244.603C70.2964 244.866 70.2085 245.188 70.2085 245.569C70.2085 245.95 70.2964 246.272 70.4722 246.536C70.6577 246.8 70.9312 246.932 71.2925 246.932ZM76.1704 247.928C76.7856 247.928 77.2642 248.133 77.606 248.543C77.938 248.934 78.104 249.441 78.104 250.066C78.104 250.691 77.938 251.199 77.606 251.59C77.2642 252 76.7856 252.205 76.1704 252.205C75.5649 252.205 75.0864 252 74.7349 251.59C74.4028 251.219 74.2368 250.711 74.2368 250.066C74.2368 249.08 74.5981 248.421 75.3208 248.089C75.5649 247.981 75.8481 247.928 76.1704 247.928ZM76.1704 251.443C76.5317 251.443 76.8003 251.312 76.9761 251.048C77.1616 250.774 77.2544 250.447 77.2544 250.066C77.2544 249.686 77.1616 249.363 76.9761 249.1C76.8003 248.826 76.5317 248.689 76.1704 248.689C75.8091 248.689 75.5356 248.826 75.3501 249.1C75.1646 249.363 75.0718 249.686 75.0718 250.066C75.0718 250.447 75.1646 250.774 75.3501 251.048C75.5356 251.312 75.8091 251.443 76.1704 251.443ZM76.1558 243.519C76.2925 243.519 76.395 243.553 76.4634 243.621C76.5415 243.68 76.5806 243.758 76.5806 243.855C76.5806 243.953 76.5513 244.046 76.4927 244.134L71.6587 251.912C71.5708 252.049 71.4634 252.117 71.3364 252.117C71.2095 252.117 71.1021 252.078 71.0142 252C70.936 251.932 70.897 251.854 70.897 251.766C70.897 251.668 70.9165 251.585 70.9556 251.517L75.8481 243.709C75.9263 243.582 76.0288 243.519 76.1558 243.519Z" fill="#24293B"/>
<path d="M67.5166 250.975C67.6631 250.975 67.7852 251.028 67.8828 251.136C67.9805 251.233 68.0293 251.355 68.0293 251.502C68.0293 251.639 67.9805 251.756 67.8828 251.854C67.7852 251.951 67.6631 252 67.5166 252H62.8877C62.7021 252 62.5508 251.941 62.4336 251.824C62.3164 251.707 62.2578 251.561 62.2578 251.385C62.2578 250.965 62.375 250.584 62.6094 250.242C62.8438 249.9 63.1367 249.588 63.4883 249.305C63.8398 249.012 64.2256 248.738 64.6455 248.484C65.0654 248.23 65.4512 247.977 65.8027 247.723C66.1641 247.469 66.4619 247.205 66.6963 246.932C66.9307 246.658 67.0479 246.385 67.0479 246.111C67.0479 245.838 67.0137 245.613 66.9453 245.438C66.877 245.252 66.7695 245.096 66.623 244.969C66.3008 244.676 65.8076 244.529 65.1436 244.529C64.4307 244.529 63.7471 244.676 63.0928 244.969C63.0146 245.008 62.9219 245.027 62.8145 245.027C62.7168 245.027 62.624 244.983 62.5361 244.896C62.458 244.808 62.4189 244.681 62.4189 244.515C62.4189 244.349 62.502 244.217 62.668 244.119C63.4785 243.709 64.3721 243.504 65.3486 243.504C66.1299 243.504 66.7793 243.729 67.2969 244.178C67.834 244.627 68.1025 245.213 68.1025 245.936C68.1025 246.658 67.7363 247.361 67.0039 248.045C66.6816 248.338 66.3301 248.611 65.9492 248.865C65.5781 249.109 65.2168 249.354 64.8652 249.598C64.5137 249.832 64.1963 250.062 63.9131 250.286C63.6299 250.511 63.4395 250.74 63.3418 250.975H67.5166Z" fill="#24293B"/>
<path d="M60.1372 250.975C60.2837 250.975 60.4058 251.028 60.5034 251.136C60.6011 251.233 60.6499 251.355 60.6499 251.502C60.6499 251.639 60.6011 251.756 60.5034 251.854C60.4058 251.951 60.2837 252 60.1372 252H55.5083C55.3228 252 55.1714 251.941 55.0542 251.824C54.937 251.707 54.8784 251.561 54.8784 251.385C54.8784 250.965 54.9956 250.584 55.23 250.242C55.4644 249.9 55.7573 249.588 56.1089 249.305C56.4604 249.012 56.8462 248.738 57.2661 248.484C57.686 248.23 58.0718 247.977 58.4233 247.723C58.7847 247.469 59.0825 247.205 59.3169 246.932C59.5513 246.658 59.6685 246.385 59.6685 246.111C59.6685 245.838 59.6343 245.613 59.5659 245.438C59.4976 245.252 59.3901 245.096 59.2437 244.969C58.9214 244.676 58.4282 244.529 57.7642 244.529C57.0513 244.529 56.3677 244.676 55.7134 244.969C55.6353 245.008 55.5425 245.027 55.4351 245.027C55.3374 245.027 55.2446 244.983 55.1567 244.896C55.0786 244.808 55.0396 244.681 55.0396 244.515C55.0396 244.349 55.1226 244.217 55.2886 244.119C56.0991 243.709 56.9927 243.504 57.9692 243.504C58.7505 243.504 59.3999 243.729 59.9175 244.178C60.4546 244.627 60.7231 245.213 60.7231 245.936C60.7231 246.658 60.3569 247.361 59.6245 248.045C59.3022 248.338 58.9507 248.611 58.5698 248.865C58.1987 249.109 57.8374 249.354 57.4858 249.598C57.1343 249.832 56.8169 250.062 56.5337 250.286C56.2505 250.511 56.0601 250.74 55.9624 250.975H60.1372Z" fill="#24293B"/>
<path d="M46.5093 245.098L42.7174 249.838C42.665 249.903 42.7116 250 42.7955 250H50.3793C50.4632 250 50.5098 249.903 50.4574 249.838L46.6655 245.098C46.6255 245.048 46.5493 245.048 46.5093 245.098Z" stroke="#24293B" stroke-linecap="round"/>
<path d="M46.5093 270.902L42.7174 266.162C42.665 266.097 42.7116 266 42.7955 266H50.3793C50.4632 266 50.5098 266.097 50.4574 266.162L46.6655 270.902C46.6255 270.952 46.5493 270.952 46.5093 270.902Z" stroke="#24293B" stroke-linecap="round"/>
<path d="M71.2925 263.416C71.9077 263.416 72.3911 263.626 72.7427 264.046C73.0747 264.437 73.2358 264.944 73.2261 265.569C73.2261 266.194 73.0649 266.702 72.7427 267.093C72.4009 267.503 71.9175 267.708 71.2925 267.708C70.687 267.708 70.2085 267.503 69.8569 267.093C69.5249 266.722 69.3589 266.214 69.3589 265.569C69.3589 264.583 69.7251 263.924 70.4575 263.592C70.6919 263.475 70.9702 263.416 71.2925 263.416ZM71.2925 266.932C71.6538 266.932 71.9272 266.8 72.1128 266.536C72.2983 266.272 72.3911 265.95 72.3911 265.569C72.3911 265.188 72.2983 264.866 72.1128 264.603C71.9272 264.329 71.6538 264.192 71.2925 264.192C70.9312 264.192 70.6577 264.329 70.4722 264.603C70.2964 264.866 70.2085 265.188 70.2085 265.569C70.2085 265.95 70.2964 266.272 70.4722 266.536C70.6577 266.8 70.9312 266.932 71.2925 266.932ZM76.1704 267.928C76.7856 267.928 77.2642 268.133 77.606 268.543C77.938 268.934 78.104 269.441 78.104 270.066C78.104 270.691 77.938 271.199 77.606 271.59C77.2642 272 76.7856 272.205 76.1704 272.205C75.5649 272.205 75.0864 272 74.7349 271.59C74.4028 271.219 74.2368 270.711 74.2368 270.066C74.2368 269.08 74.5981 268.421 75.3208 268.089C75.5649 267.981 75.8481 267.928 76.1704 267.928ZM76.1704 271.443C76.5317 271.443 76.8003 271.312 76.9761 271.048C77.1616 270.774 77.2544 270.447 77.2544 270.066C77.2544 269.686 77.1616 269.363 76.9761 269.1C76.8003 268.826 76.5317 268.689 76.1704 268.689C75.8091 268.689 75.5356 268.826 75.3501 269.1C75.1646 269.363 75.0718 269.686 75.0718 270.066C75.0718 270.447 75.1646 270.774 75.3501 271.048C75.5356 271.312 75.8091 271.443 76.1704 271.443ZM76.1558 263.519C76.2925 263.519 76.395 263.553 76.4634 263.621C76.5415 263.68 76.5806 263.758 76.5806 263.855C76.5806 263.953 76.5513 264.046 76.4927 264.134L71.6587 271.912C71.5708 272.049 71.4634 272.117 71.3364 272.117C71.2095 272.117 71.1021 272.078 71.0142 272C70.936 271.932 70.897 271.854 70.897 271.766C70.897 271.668 70.9165 271.585 70.9556 271.517L75.8481 263.709C75.9263 263.582 76.0288 263.519 76.1558 263.519Z" fill="#24293B"/>
<path d="M67.5898 263.621C67.7852 263.621 67.9463 263.685 68.0732 263.812C68.21 263.929 68.2783 264.08 68.2783 264.266C68.2783 264.441 68.2344 264.617 68.1465 264.793L64.748 271.766C64.6406 271.971 64.4844 272.068 64.2793 272.059C64.084 272.059 63.9326 272.01 63.8252 271.912C63.7275 271.814 63.6787 271.702 63.6787 271.575C63.6787 271.448 63.708 271.331 63.7666 271.224L67.0625 264.661H62.6973C62.5605 264.661 62.4385 264.612 62.3311 264.515C62.2334 264.417 62.1846 264.295 62.1846 264.148C62.1846 264.012 62.2334 263.89 62.3311 263.782C62.4385 263.675 62.5605 263.621 62.6973 263.621H67.5898Z" fill="#24293B"/>
<path d="M59.9175 270.975C60.064 270.975 60.186 271.028 60.2837 271.136C60.3911 271.233 60.4448 271.355 60.4448 271.502C60.4448 271.639 60.3911 271.756 60.2837 271.854C60.186 271.951 60.064 272 59.9175 272H56.2114C56.0747 272 55.9526 271.951 55.8452 271.854C55.7476 271.756 55.6987 271.639 55.6987 271.502C55.6987 271.365 55.7476 271.243 55.8452 271.136C55.9429 271.028 56.0649 270.975 56.2114 270.975H57.6323V264.896L56.4165 265.496C56.3774 265.516 56.3335 265.535 56.2847 265.555C56.2456 265.564 56.1724 265.569 56.0649 265.569C55.9673 265.569 55.8696 265.525 55.772 265.438C55.6743 265.34 55.6255 265.193 55.6255 264.998C55.6255 264.803 55.728 264.656 55.9331 264.559L57.5737 263.709C57.6812 263.65 57.7935 263.621 57.9106 263.621H58.1597C58.3159 263.621 58.4478 263.68 58.5552 263.797C58.6724 263.904 58.731 264.036 58.731 264.192V270.975H59.9175Z" fill="#24293B"/>
<path d="M42.0874 258H78.0874" stroke="#24293B" stroke-linecap="round"/>
<defs>
<linearGradient id="paint0_linear_1655_5866" x1="71.949" y1="450" x2="109.917" y2="98.1845" gradientUnits="userSpaceOnUse">
<stop stop-color="#26AE4D"/>
<stop offset="0.298428" stop-color="#4FD465"/>
<stop offset="0.98" stop-color="#A1E6A8"/>
</linearGradient>
<linearGradient id="paint1_linear_1655_5866" x1="71.949" y1="450" x2="109.917" y2="98.1845" gradientUnits="userSpaceOnUse">
<stop stop-color="#26AE4D"/>
<stop offset="0.298428" stop-color="#4FD465"/>
<stop offset="0.98" stop-color="#A1E6A8"/>
</linearGradient>
<linearGradient id="paint2_linear_1655_5866" x1="71.949" y1="450" x2="109.917" y2="98.1845" gradientUnits="userSpaceOnUse">
<stop stop-color="#26AE4D"/>
<stop offset="0.298428" stop-color="#4FD465"/>
<stop offset="0.98" stop-color="#A1E6A8"/>
</linearGradient>
</defs>
</svg>
